<?xml version="1.0" encoding="UTF-8"?>
<svg id="Layer_1" data-name="Layer 1" xmlns="http://www.w3.org/2000/svg" viewBox="0 0 436.85 144.58">
  <defs>
    <style>
      .cls-1 {
        fill: #010100;
      }

      .cls-1, .cls-2, .cls-3, .cls-4 {
        stroke-width: 0px;
      }

      .cls-2 {
        fill: none;
      }

      .cls-3 {
        fill: #000606;
      }

      .cls-4 {
        fill: #09000a;
      }
    </style>
  </defs>
  <g id="Layer_3" data-name="Layer 3">
    <path class="cls-3" d="M193.5,78.37c-1.18-6.57-4.82-16.5-6.7-23.01-1.87-6.51-4.84-17.97-11.86-16.76-13.15,2.26-42.49-8.43-42.99,2.55-1.3,28.6-2.83,44.08-22.99,68.87-2.19,2.69-6.38,9.81-4.48,12.71,3.19,4.87,11.02,2.92,19.63,2.92,5.51,0,11.73,1.85,16.69-2.13,3.33-2.67-3.32-11.48-5.36-14.93-4.37-7.4-7.68-9.02-4.1-14.56,3.59-5.54,8.05-5.38,16.6-5.38,6.6,0,16.24-.78,22.73.41,6.5,1.19,15.08,6.14,20.8,2.85,5.73-3.29,3.18-7.06,2.01-13.56l.02.02ZM183.25,74.32c-1.12,2.33-3.12,1.82-5.71,1.73-11.45-.4-18.62-2.05-28,.06-2.78.62-5.13,1.98-6.92-.24-1.78-2.23-2.21-5.3-1.79-8.12.42-2.82.46-6.41,2.78-8.06,8.76-6.22,23.03-1.8,33.57,1.93,3.49,1.23,8.28,8.06,6.07,12.7Z"/>
  </g>
  <g id="Layer_5" data-name="Layer 5">
    <path class="cls-3" d="M248.16,105.56c-2.37-4.71-4.28-9.21-6.32-14.07-5.83-13.92-4.28-26.44-4.39-35.64-.04-3.3.94-5.71.94-19.76,0-4.26-4.3-1.25-14.73-1.25-7.89,0-13.57-3.33-14.38.57-7.94,38.21-4.25,36.63-20.31,73.73-1.18,2.74-4.47,7.4-1.77,12.03.98,1.68,10.89,7.31,25.87,3.8.59-.14,3.47-1.79,1.88-7.64-1.05-3.87-7.95-18.29-7.22-22.1,2.21-11.59,16.17-9.51,19.09-7.54,7.21,4.86,6.75,11.95,4.65,15.83-6.92,12.77-6.88,14.09-7.83,17.61-.67,2.49.27,4.2,4.16,4.38,4.16.2,19.83.32,21.76-1.84,3.51-3.93.97-13.4-1.4-18.11h0ZM228.78,73.39c-.88,1.8-2.71,3-4.65,3.49s-3.98.36-5.96.05c-2.74-.43-5.78-1.48-6.87-4.03-.99-2.31,0-4.96,1.01-7.26,2.25-5.09,2.02-5.93,6.41-13.02.21-.34,2.51-5.46,5.14-.19,1.35,2.71,3.28,9.03,4.47,12.49.94,2.76,1.73,5.85.45,8.47Z"/>
  </g>
  <g id="Layer_4" data-name="Layer 4">
    <path class="cls-3" d="M293.69,57.72c-5.59.31-8.96,2.18-13.58,5.35-3.22,2.21-6.36,4.66-8.63,7.84-5.71,7.98-3.66,18.74,2.57,26.32s12.79,9.93,22.49,8.47c2.9-.44,7.06-1.79,9.41-3.55,3.33-2.5,5.14-4.49,6.82-8.3,2.26-5.13,4.94-9.22,7.57-12.08,1.34-1.46,4.03-1.12,5.91-.48,5.84,1.99,9.8,7.88,10.65,14,.85,6.11-.02,10.1-2.98,15.51-2.03,3.71-7.15,7.47-10.72,9.74-3.56,2.25-7.29,4.12-11.44,4.84-13.45,2.35-25.7,3.71-38.88-1.1-7.39-2.7-10.17-8.2-11.8-10.95-4.04-6.83-3.66-19.16-1.7-30.56s7.88-28.23,10.49-32c4.2-6.09,10.84-10.84,20-13.45,16.28-4.64,23.56-2.53,26.53-.89,3.59,1.98,4.77,5,5.5,10.32.51,3.79.1,5.62-.84,9.33s-7.29,12.85-11.93,7.73c-6.87-7.59-9.83-6.38-15.42-6.07l-.02-.02Z"/>
  </g>
  <g id="Layer_10_copy_2" data-name="Layer 10 copy 2">
    <g>
      <path class="cls-2" d="M15.44,106.01c-10.87,27.75-10.21,36.57,21.25,18.13.94-.84,1.9-1.71,2.86-2.59-6.25-2.02-12.36-5.46-17.59-9.14-2.46-1.74-4.7-3.92-6.53-6.39h.01Z"/>
      <path class="cls-2" d="M53.32,62.24c-1.12-1.22-2.19-2.44-2.95-3.7-2.45,2.77-4.9,5.6-7.33,8.51-3.68,4.39-7.19,8.78-10.5,13.11,5.2,2.46,9.65,7.33,13.13,11.87,2.58,3.36,5.86,8.39,12.77,10.53,3.8-4.14,7.63-8.5,11.44-13.04,2.63-3.14,5.18-6.29,7.65-9.42-3.99-3.29-7.57-5.98-12.19-8.99-3.38-2.21-9.28-5.88-12.01-8.86h-.01Z"/>
      <path class="cls-2" d="M69.45,62.97c2.14,6.76,5.99,7.96,12.33,11.31.06.03.11.06.17.09,2.68-3.55,5.24-7.06,7.65-10.51-3.22-1.95-4.19-3.12-7.14-3.99-8.9-2.61-13.78.62-13,3.1h-.01Z"/>
      <path class="cls-2" d="M69.59,37.1c3.1-2.95,6.14-5.69,9.1-8.22-5.7.82-7.96,3.09-9.1,8.22Z"/>
      <path class="cls-2" d="M86.68,27.03c.07.14.12.29.12.45,0,.55-.45,1-1,1s-1.12,0-1.65.02c-3.56,2.11-7.56,4.66-11.99,7.57-.96.89-1.92,1.8-2.89,2.73-.16.96-.29,2-.41,3.13,4.2-.56,8.46-.55,12.83-.18,6.08.5,12.71,3.31,18,6.53.34-.57.67-1.13,1-1.69,8.65-26.79,3.29-29.35-14.01-19.56Z"/>
      <path class="cls-2" d="M67.84,42.09c.08-.75.16-1.47.26-2.16-.6.58-1.21,1.18-1.81,1.78.02.2.04.42.06.63.5-.09,1-.17,1.5-.25h-.01Z"/>
      <path class="cls-2" d="M80.05,27.73c.11-.1.23-.19.34-.28-13.63-.29-12.29-2.95-12.29-27.44-1.81,26.08-2.3,27.18-16.66,27.18h-4.31c13.41,0,17.67,2.93,19.01,13.28.74-.73,1.47-1.44,2.21-2.14,1.2-6.9,3.75-9.78,11.7-10.58v-.02Z"/>
      <path class="cls-2" d="M59.54,102.87c.41.1.83.2,1.26.29,4.26.81,11.88-2.02,16.79-7.73,3.05-3.55,6.7-9.65,2.31-13.36-.55-.46-1.08-.91-1.6-1.34-2.47,3.14-5.02,6.28-7.65,9.43-3.72,4.44-7.43,8.69-11.1,12.71h0Z"/>
      <path class="cls-4" d="M66.73,55.8c.47-5.53.72-10.04,1.11-13.71-.5.08-1,.15-1.5.25.33,3.63.39,8.06.39,13.46Z"/>
      <path class="cls-4" d="M68.86,41.93c-.23,2.12-.41,4.56-.62,7.36-.15,1.97-.31,4.21-.52,6.59-.04.52-.48.91-1,.91h-.04c-.54-.02-.96-.46-.96-1,0-5.33-.07-9.65-.39-13.16-4.93,4.91-9.95,10.24-14.97,15.9.76,1.26,1.82,2.48,2.95,3.7,2.73,2.98,8.63,6.65,12.01,8.86,4.62,3.02,8.2,5.7,12.19,8.99,1.51-1.92,2.98-3.83,4.42-5.73-.06-.03-.11-.06-.17-.09-6.33-3.35-10.19-4.55-12.33-11.31-.79-2.48,4.09-5.71,13-3.1,2.95.86,3.92,2.04,7.14,3.99,3.75-5.38,7.14-10.61,10.1-15.58-5.29-3.22-11.92-6.03-18-6.53-4.38-.36-8.63-.37-12.83.18l.02.02Z"/>
      <path class="cls-4" d="M45.68,92.02c-3.48-4.54-7.93-9.41-13.13-11.87-5.96,7.79-11.26,15.38-15.75,22.45-.47,1.16-.92,2.3-1.35,3.4,1.82,2.47,4.06,4.65,6.53,6.39,5.23,3.69,11.34,7.12,17.59,9.14,6.03-5.54,12.42-11.94,18.89-18.99-6.91-2.14-10.19-7.17-12.77-10.53h0Z"/>
      <path class="cls-4" d="M79.9,82.07c4.39,3.71.74,9.81-2.31,13.36-4.91,5.7-12.53,8.53-16.79,7.73-.44-.08-.85-.18-1.26-.29-6.47,7.1-12.81,13.51-18.78,19.04,1.08.32,2.17.6,3.25.82,12.35,2.54,25.09,3.73,36.74-1.08,4.33-1.79,8.79-3.6,12.61-6.31,5.27-3.74,10-8.77,12.68-14.65,1.71-3.76,1.1-8.01-2.04-11.56-7.83-8.87-11.19-9.14-21.16-14.3-1.48,1.96-2.99,3.93-4.55,5.9.53.44,1.06.88,1.6,1.34h.01Z"/>
      <path class="cls-4" d="M61,43.7c-3.49,1.14-9.84,5.55-11.26,8.93-.76,1.82-.57,3.44.13,4.97,4.61-5.19,9.22-10.1,13.75-14.66-.88.22-1.75.48-2.63.76h.01Z"/>
      <path class="cls-4" d="M100.54,48.8c-2.96,4.97-6.34,10.18-10.09,15.56,1.01.58,2.22,1.22,3.73,1.94,2.76,1.31,8.76,1.97,11.92,1.04,4.7-1.39,6.45-2.99,5.97-5-1.03-4.32-6.18-10.11-11.53-13.53h0Z"/>
      <path class="cls-4" d="M19.25,96.61c-.1.24-.2.48-.3.72,3.75-5.62,7.98-11.52,12.64-17.6-5.55-2.25-13.71-1.49-17.76,2.9-4.27,4.63-3.05,6.47-3.11,9.69-.09,4.27,1.33,8.45,3.65,12.11,1.04-1.67,2.12-3.37,3.26-5.11.54-.91,1.08-1.81,1.62-2.71Z"/>
      <path class="cls-4" d="M81.94,74.36c.31.16.6.31.9.47,2.67-3.53,5.21-7.03,7.61-10.47-.3-.17-.59-.34-.86-.51-2.41,3.45-4.97,6.96-7.65,10.51Z"/>
      <path class="cls-4" d="M80,28.72c-.45.05-.89.1-1.31.16-2.96,2.53-6,5.28-9.1,8.22-.12.54-.23,1.1-.33,1.7.97-.93,1.93-1.84,2.89-2.73-.79.52-1.6,1.05-2.42,1.59,3.43-3.07,6.99-6.16,10.27-8.94Z"/>
      <path class="cls-4" d="M81.31,27.62c.06-.05.13-.11.19-.16-.38,0-.75-.01-1.11-.02-.11.1-.23.19-.34.28.41-.04.83-.08,1.26-.11h0Z"/>
      <path class="cls-4" d="M68.34,38.3c-.73.71-1.47,1.42-2.21,2.14.05.41.1.83.15,1.26.61-.6,1.21-1.19,1.81-1.78.08-.57.16-1.11.25-1.63h0Z"/>
      <path class="cls-4" d="M58.44,102.55c.36.11.72.22,1.1.31,3.67-4.03,7.38-8.27,11.1-12.71,2.63-3.14,5.19-6.29,7.65-9.43-.26-.22-.52-.43-.77-.64-2.46,3.13-5.02,6.28-7.65,9.42-3.8,4.54-7.63,8.9-11.44,13.04h0Z"/>
      <path class="cls-4" d="M36.69,124.13c.71-.42,1.43-.84,2.17-1.28-8.81,7.62-15.76,13.82-25.86,19.11-3.05,1.6-7.33,2.91-10.18,1.38-1.91-1.02-2.1-3.22-2.28-5.24s-.2-3.13.37-5.13c1.08-3.78,2.54-7.47,4.25-11.1,1.74-3.71,5.29-10.21,9.35-17.22-.05-.07-.09-.14-.14-.22C2.11,124.17-3.13,139.24,1.9,143.45c.91.76,2.11,1.13,3.57,1.13,7.01,0,19.98-8.5,35.29-22.68-.4-.12-.8-.24-1.2-.37-.96.89-1.92,1.75-2.86,2.59h-.01Z"/>
      <path class="cls-4" d="M90.55,20.22c3.07-2.23,6.27-4.28,9.64-6.03,1.79-.93,2.87-1.15,4.87-1.45,1.99-.3,4.17-.63,5.65.75,2.21,2.06,2.04,5.93,1.27,8.85-2.53,9.66-6.74,16.86-11.85,25.95.19-.58.38-1.15.56-1.71-.33.56-.66,1.12-1,1.69.24.15.48.29.72.44.04.03.09.06.13.09,1.63-2.73,3.13-5.38,4.48-7.93,4.49-8.48,11.25-23.37,6.01-27.76s-18.71,4.88-26.28,10.8c-1.05.82-2.11,1.68-3.18,2.56h1.11c3.18-2.64,5.95-4.85,7.87-6.25Z"/>
      <path class="cls-4" d="M65.22,41.35c-.53.52-1.06,1.05-1.59,1.58.57-.15,1.14-.26,1.7-.39-.04-.41-.08-.81-.12-1.19h.01Z"/>
      <path class="cls-4" d="M32.55,80.15c3.31-4.33,6.82-8.72,10.5-13.11,2.43-2.91,4.88-5.74,7.33-8.51-.19-.31-.36-.62-.5-.94-2.54,2.86-5.08,5.8-7.6,8.81-3.77,4.5-7.34,8.96-10.69,13.33.05.02.09.03.14.05.28.12.55.24.82.37Z"/>
      <path class="cls-4" d="M100.41,48.72c-.24-.15-.48-.3-.72-.44-2.96,4.97-6.35,10.19-10.1,15.58.27.16.56.33.86.51,3.74-5.37,7.13-10.59,10.09-15.56-.04-.03-.09-.06-.13-.09Z"/>
      <path class="cls-4" d="M17.63,99.32c-1.14,1.74-2.22,3.44-3.26,5.11.05.07.09.15.14.22,1.02-1.76,2.06-3.54,3.12-5.33Z"/>
      <path class="cls-4" d="M65.34,42.63v-.09c-.57.12-1.14.24-1.7.39-4.54,4.56-9.15,9.48-13.75,14.66.15.32.31.63.5.94,5.02-5.66,10.04-11,14.97-15.9h-.02Z"/>
      <path class="cls-4" d="M16.79,102.61c4.49-7.07,9.8-14.66,15.75-22.45-.27-.13-.54-.26-.82-.37-.05-.02-.09-.03-.14-.05-4.66,6.08-8.89,11.98-12.64,17.6-.75,1.82-1.47,3.58-2.15,5.28h0Z"/>
      <path class="cls-4" d="M77.53,80.09c.26.21.51.42.77.64,1.55-1.97,3.07-3.94,4.55-5.9-.3-.15-.59-.3-.9-.47-1.44,1.9-2.91,3.81-4.42,5.73Z"/>
      <path class="cls-4" d="M59.54,102.87c-.38-.09-.74-.2-1.1-.31-6.47,7.05-12.85,13.44-18.89,18.99.4.13.8.25,1.2.37,5.98-5.54,12.31-11.94,18.78-19.04h0Z"/>
      <path class="cls-4" d="M81.93,27.47s-.1.08-.15.12c1.23-.07,2.56-.11,4.02-.11-1.4,0-2.68,0-3.87-.01Z"/>
      <path class="cls-4" d="M72.15,36.07c4.43-2.91,8.43-5.46,11.99-7.57-1.34.02-2.57.08-3.68.17-2.7,2.28-5.49,4.76-8.32,7.4h.01Z"/>
      <path class="cls-4" d="M110.39,13.87c-.74-.62-1.73-.92-2.97-.92-4.53,0-12.26,4.07-22.05,11.74-.74.58-1.49,1.18-2.24,1.79h2.67c.39,0,.71.23.88.55,17.3-9.79,22.66-7.23,14.01,19.56,1.23-2.11,2.39-4.18,3.45-6.18,7.41-13.98,9.69-23.65,6.25-26.53h0Z"/>
      <path class="cls-4" d="M81.78,27.59s.1-.08.15-.12h-.43c-.06.05-.12.11-.19.16.15-.01.31-.02.47-.03h0Z"/>
      <path class="cls-4" d="M85.37,24.69c9.79-7.66,17.52-11.74,22.05-11.74,1.24,0,2.23.3,2.97.92,3.44,2.88,1.16,12.55-6.25,26.53-1.06,2-2.22,4.07-3.45,6.18-.18.56-.37,1.13-.56,1.71,5.12-9.09,9.32-16.3,11.85-25.95.76-2.92.94-6.8-1.27-8.85-1.48-1.37-3.65-1.05-5.65-.75-1.99.3-3.08.52-4.87,1.45-3.38,1.75-6.57,3.79-9.64,6.03-1.93,1.4-4.7,3.61-7.87,6.25h.45c.75-.61,1.5-1.21,2.24-1.79h0Z"/>
      <path class="cls-4" d="M80,28.72c-3.28,2.78-6.84,5.87-10.27,8.94.82-.54,1.62-1.07,2.42-1.59,2.83-2.64,5.61-5.12,8.32-7.4-.16.01-.31.03-.47.05Z"/>
      <path class="cls-4" d="M15.44,106.01c-.14-.19-.28-.39-.41-.58C3.41,124.29-1.95,138.93,2.54,142.69c.75.63,1.76.93,2.99.93,6.05,0,17.56-7.38,31.17-19.49-31.46,18.44-32.12,9.62-21.25-18.13h-.01Z"/>
      <path class="cls-4" d="M19.25,96.61c-.54.9-1.08,1.81-1.62,2.71.43-.66.88-1.32,1.32-1.99.1-.24.2-.48.3-.72Z"/>
      <path class="cls-4" d="M15.44,106.01c.43-1.1.88-2.24,1.35-3.4-.6.95-1.19,1.89-1.76,2.82.14.2.27.39.41.58Z"/>
      <path class="cls-4" d="M2.54,142.69c-4.49-3.76.87-18.4,12.49-37.26-.18-.26-.36-.51-.53-.78-4.05,7-7.61,13.51-9.35,17.22-1.7,3.63-3.17,7.32-4.25,11.1-.57,2-.54,3.12-.37,5.13s.37,4.22,2.28,5.24c2.85,1.53,7.13.22,10.18-1.38,10.1-5.29,17.05-11.48,25.86-19.11-.74.44-1.46.87-2.17,1.28-13.61,12.11-25.11,19.49-31.17,19.49-1.23,0-2.24-.3-2.99-.93h.02Z"/>
      <path class="cls-4" d="M16.79,102.61c.68-1.7,1.4-3.46,2.15-5.28-.44.67-.89,1.33-1.32,1.99-1.06,1.78-2.11,3.57-3.12,5.33.17.26.35.52.53.78.57-.93,1.16-1.87,1.76-2.82Z"/>
    </g>
    <path class="cls-1" d="M47.13,27.17c18.53,0,19.6,5.58,19.6,28.63,1.94-22.74.15-28.32,19.07-28.32-19.4,0-17.7-.13-17.7-27.48-1.97,28.47-2.38,27.17-20.97,27.17Z"/>
    <g>
      <path class="cls-3" d="M426.03,108.64c-.1,1.29-.2,2.69-.33,4.21-.04.52-.48.91-1,.91h-.04c-.54-.02-.96-.46-.96-1,0-10.81-.42-15.01-4.76-16.5-3.22,1.42-7.46,3.58-13.84,5.41-7.84,2.26-15.54,4.04-23.65,4.93-6.3.69-10.07.22-12.39.08-6.72-.41-9.37-2.31-10.75-5.5-1.05-2.43-1.03-7.3,1.19-10.21,1.6-2.11,3.84-2.91,6.49-2.91,2.39,0,5.57-.6,7.15,2.04.27.45,1.38,3.41,1.89,3.51.66.13,2.94,1.16,4.71-.61,1.95-1.95,4.74-4.26,6.19-8.27.94-2.6,1.47-7.88-.91-9.3-1.35-.8-3.26-.51-5.59.94-2.55,1.59-5.17,2.49-8.13,2.99-1.35.23-4.19-.12-5.13-1.12-.87-.92-1.79-2.85-.04-6.12,2.46-4.6,2.23-6.02,7.19-11.98,3.54-4.25,11.27-3.62,16.42-1.59,5.15,2.02,10.38,4.39,15.75,5.71,2.86.7,7.99,1.98,10.08-.1,1.6-1.6,2.6-3.03,1.54-6.95-1.37-5.09-2.18-8.01-4.86-12.54-.97-1.64-2.21-4.77-3.73-5.21-4.23-1.22-5.53-.26-13.79-.26-12.48,0-18.31-2.79-22.88-3.21-2.58-.24-7.71-.71-9.08,1.49-5.12,8.28,1.73,27.8-15.82,59.03-2.45,4.35-5.44,9.06-8.83,13.71-1.96,2.68-3.16,3.97-4.82,7.69-1.36,3.04-.85,5.14,1.88,7.05,3.36,2.35,14.48,1.77,22.46,1.31,12.21-.71,14.26-1.14,17.02-1.3,16.34-.95,20.23-1.48,37-.85,3.71.14,7.26,2.35,10.96,2.67,3.69.32,7.05-.56,9.11-3.64.88-1.32,1.82-2.89,1.97-4.47.24-2.49-.22-5-.76-7.45-.84-3.82-1.58-10.48-4.12-13.99-2.07,1.67-2.33,5-2.8,11.38v.02Z"/>
      <path class="cls-3" d="M423.36,91.93c.04-.07.08-.14.12-.22-.04.08-.08.15-.12.22Z"/>
      <path class="cls-3" d="M423.61,91.43c.04-.08.07-.15.1-.23-.03.08-.07.16-.1.23Z"/>
      <path class="cls-3" d="M424.98,84.66c.02-.17.03-.34.05-.51-.02.17-.03.34-.05.51Z"/>
      <path class="cls-3" d="M423.08,92.37c.04-.06.09-.13.13-.2-.04.07-.09.13-.13.2Z"/>
      <path class="cls-3" d="M422.09,93.38c.06-.04.11-.09.17-.13-.06.04-.11.09-.17.13Z"/>
      <path class="cls-3" d="M423.84,90.86c.03-.08.06-.16.09-.24-.03.08-.06.16-.09.24Z"/>
      <path class="cls-3" d="M424.74,86.75c.02-.15.04-.3.06-.45-.02.15-.04.3-.06.45Z"/>
      <path class="cls-3" d="M424.07,90.15c.03-.09.05-.18.08-.28-.03.1-.05.19-.08.28Z"/>
      <path class="cls-3" d="M424.6,87.67c.02-.13.04-.27.06-.41-.02.14-.04.27-.06.41Z"/>
      <path class="cls-3" d="M424.29,89.29c.02-.1.04-.2.06-.3-.02.1-.04.21-.06.3Z"/>
      <path class="cls-3" d="M424.45,88.52c.02-.12.04-.24.06-.36-.02.12-.04.24-.06.36Z"/>
      <path class="cls-3" d="M422.78,92.75c.05-.06.1-.11.15-.17-.05.06-.1.12-.15.17Z"/>
      <path class="cls-3" d="M417.52,94.48c.11,0,.22,0,.33-.02-.11,0-.22.01-.33.02Z"/>
      <path class="cls-3" d="M418.23,94.44c.1,0,.2-.01.3-.02-.1,0-.2.02-.3.02Z"/>
      <path class="cls-3" d="M420.81,94.01c.06-.02.12-.04.18-.06-.06.02-.11.04-.18.06Z"/>
      <path class="cls-3" d="M421.7,93.63c.06-.03.12-.07.18-.11-.06.04-.12.08-.18.11Z"/>
      <path class="cls-3" d="M418.9,94.39c.09,0,.19-.02.27-.03-.09.01-.18.02-.27.03Z"/>
      <path class="cls-3" d="M421.27,93.84c.06-.03.12-.06.19-.09-.06.03-.12.06-.19.09Z"/>
      <path class="cls-3" d="M419.53,94.3c.08-.01.16-.02.23-.04-.07.01-.16.02-.23.04Z"/>
      <path class="cls-3" d="M420.18,94.18s.09-.02.13-.03c-.04.01-.09.02-.13.03Z"/>
      <path class="cls-3" d="M424.86,85.74c.02-.16.04-.32.05-.48-.02.16-.04.32-.05.48Z"/>
      <path class="cls-3" d="M425.32,80.75c.01-.16.02-.31.04-.48-.01.16-.02.32-.04.48Z"/>
      <path class="cls-3" d="M422.61,92.94c-.05.05-.1.1-.16.15.05-.05.11-.1.16-.15Z"/>
      <path class="cls-3" d="M425.21,82.18c.01-.17.03-.35.04-.52-.01.18-.03.35-.04.52Z"/>
      <path class="cls-3" d="M425.57,77.21h0c0,17.43-1.08,17.51,11.28,17.51-4.39,0-7.03.48-8.67,1.77h0c1.64-1.3,4.28-1.77,8.67-1.77-12.36,0-11.28-.08-11.28-17.51Z"/>
      <path class="cls-3" d="M425.44,79.11c0-.1.01-.2.02-.3,0,.1-.01.2-.02.3Z"/>
      <path class="cls-3" d="M425.09,83.47c.02-.17.03-.34.05-.52-.02.18-.03.35-.05.52Z"/>
      <path class="cls-3" d="M425.77,101.4c.42-2.29,1.1-3.86,2.42-4.9h0c-1.32,1.04-2,2.61-2.42,4.9Z"/>
      <path class="cls-3" d="M425.77,101.4c-.18.98-.31,2.09-.43,3.35.12-1.26.25-2.37.43-3.35Z"/>
      <path class="cls-3" d="M425.24,105.8c-.08.95-.15,1.98-.24,3.09.08-1.11.16-2.14.24-3.09Z"/>
      <path class="cls-3" d="M427.13,95.61c.38.24.72.54,1.05.89,1.64-1.3,4.28-1.77,8.67-1.77-12.36,0-11.28-.08-11.28-17.51-.04.55-.08,1.08-.11,1.6,0,.1-.01.2-.02.3-.03.4-.06.79-.08,1.17-.01.16-.02.32-.04.48-.02.3-.05.61-.07.9-.01.18-.03.35-.04.52-.02.26-.04.52-.06.77-.02.18-.03.35-.05.52-.02.23-.04.46-.06.68-.02.17-.03.34-.05.51-.02.21-.04.41-.06.61-.02.16-.04.32-.05.48-.02.19-.05.38-.07.56-.02.15-.04.3-.06.45-.02.18-.05.35-.07.52-.02.14-.04.27-.06.41-.03.17-.06.33-.08.49-.02.12-.04.24-.06.36-.03.16-.06.32-.1.47-.02.1-.04.21-.06.3-.05.2-.09.39-.14.58-.03.1-.05.19-.08.28-.05.16-.09.32-.14.47-.03.08-.06.16-.09.24-.04.11-.08.23-.13.33-.03.08-.07.16-.1.23-.04.1-.09.19-.13.28-.04.07-.08.15-.12.22-.05.08-.09.17-.14.24-.04.07-.09.13-.13.2-.05.07-.1.14-.16.21-.05.06-.1.12-.15.17-.06.06-.11.12-.17.18-.05.05-.1.1-.16.15-.06.06-.13.11-.19.16-.06.04-.11.09-.17.13-.07.05-.14.09-.21.14-.06.04-.12.08-.18.11-.08.04-.16.08-.24.12-.06.03-.12.06-.19.09-.09.04-.19.07-.29.11-.06.02-.11.04-.18.06-.16.05-.32.1-.5.14-.04.01-.09.02-.13.03-.14.03-.27.06-.42.09-.07.01-.16.02-.23.04-.12.02-.23.04-.36.05-.09.01-.18.02-.27.03-.12.01-.24.03-.36.04-.1,0-.2.02-.3.02-.13,0-.25.02-.38.02-.11,0-.22.01-.33.02-.13,0-.27.01-.4.01h-4.87c3.59,0,6.14.33,7.96,1.21,2.77-1.12,4.79-1.46,6.94-.12h-.05Z"/>
      <path class="cls-3" d="M428.18,96.49c-.33-.34-.67-.65-1.05-.89-2.15-1.34-4.16-1-6.94.12,3.98,1.9,4.47,6.38,4.5,15.66v1.38c.08-.91.15-1.77.21-2.59.03-.44.07-.86.1-1.28.08-1.11.16-2.14.24-3.09.03-.36.06-.71.09-1.05.12-1.26.25-2.37.43-3.35.42-2.29,1.1-3.86,2.42-4.9h0Z"/>
      <path class="cls-3" d="M418.54,94.42c.12-.01.24-.02.36-.04-.12.01-.24.03-.36.04Z"/>
      <path class="cls-3" d="M420.31,94.16c.17-.04.34-.09.5-.14-.16.05-.32.1-.5.14Z"/>
      <path class="cls-3" d="M419.17,94.36c.12-.02.24-.03.36-.05-.12.02-.23.04-.36.05Z"/>
      <path class="cls-3" d="M419.76,94.27c.14-.03.28-.06.42-.09-.14.03-.27.06-.42.09Z"/>
      <path class="cls-3" d="M417.85,94.47c.13,0,.26-.02.38-.02-.13,0-.25.02-.38.02Z"/>
      <path class="cls-3" d="M412.23,94.52h-.02c3.6,0,6.16.33,7.98,1.21h0c-1.82-.87-4.38-1.21-7.96-1.21h0Z"/>
      <path class="cls-3" d="M417.11,94.5c.14,0,.27,0,.4-.01-.13,0-.27.01-.4.01Z"/>
      <path class="cls-3" d="M425.03,84.15c.02-.22.04-.45.06-.68-.02.23-.04.46-.06.68Z"/>
      <path class="cls-3" d="M423.71,91.2c.04-.11.08-.22.13-.33-.04.11-.08.23-.13.33Z"/>
      <path class="cls-3" d="M424.52,88.16c.03-.16.06-.32.08-.49-.03.17-.06.33-.08.49Z"/>
      <path class="cls-3" d="M424.36,88.99c.03-.15.07-.31.1-.47-.03.16-.06.32-.1.47Z"/>
      <path class="cls-3" d="M423.47,91.71c.05-.09.09-.19.13-.28-.04.1-.09.19-.13.28Z"/>
      <path class="cls-3" d="M425.35,80.27c.03-.38.06-.77.08-1.17-.03.4-.06.79-.08,1.17Z"/>
      <path class="cls-3" d="M425.57,77.21c-.04.55-.08,1.08-.11,1.6.04-.52.07-1.05.11-1.6h0Z"/>
      <path class="cls-3" d="M424.15,89.87c.05-.19.1-.38.14-.58-.05.2-.09.39-.14.58Z"/>
      <path class="cls-3" d="M425.25,81.65c.02-.29.05-.6.07-.9-.02.31-.05.61-.07.9Z"/>
      <path class="cls-3" d="M423.21,92.17c.05-.08.1-.16.14-.24-.05.08-.09.17-.14.24Z"/>
      <path class="cls-3" d="M424.66,87.27c.02-.17.05-.34.07-.52-.02.18-.05.35-.07.52Z"/>
      <path class="cls-3" d="M423.93,90.62c.05-.15.1-.31.14-.47-.05.16-.09.32-.14.47Z"/>
      <path class="cls-3" d="M424.92,85.26c.02-.2.04-.4.06-.61-.02.21-.04.41-.06.61Z"/>
      <path class="cls-3" d="M425.14,82.95c.02-.25.04-.51.06-.77-.02.26-.04.52-.06.77Z"/>
      <path class="cls-3" d="M420.98,93.95c.1-.04.2-.07.29-.11-.09.04-.19.07-.29.11Z"/>
      <path class="cls-3" d="M421.46,93.75c.08-.04.16-.08.24-.12-.08.04-.16.08-.24.12Z"/>
      <path class="cls-3" d="M421.88,93.52c.07-.04.14-.09.21-.14-.07.05-.14.09-.21.14Z"/>
      <path class="cls-3" d="M422.78,92.75c-.06.06-.11.12-.17.18.06-.06.12-.12.17-.18Z"/>
      <path class="cls-3" d="M422.93,92.58c.05-.07.1-.14.16-.21-.05.07-.1.14-.16.21Z"/>
      <path class="cls-3" d="M422.26,93.25c.06-.05.13-.1.19-.16-.06.06-.12.11-.19.16Z"/>
      <path class="cls-3" d="M424.79,86.3c.02-.18.05-.37.07-.56-.02.19-.05.38-.07.56Z"/>
      <path class="cls-3" d="M425.33,104.74c-.03.34-.06.69-.09,1.05.03-.36.06-.71.09-1.05Z"/>
      <path class="cls-3" d="M420.2,95.73h0c3.98,1.9,4.47,6.38,4.5,15.66-.04-9.27-.52-13.75-4.5-15.66Z"/>
      <path class="cls-3" d="M424.7,112.49v.27c.08-.91.15-1.77.21-2.59-.06.82-.13,1.68-.21,2.59v-.27Z"/>
      <path class="cls-3" d="M425,108.89c-.03.42-.06.84-.1,1.28.03-.44.07-.86.1-1.28Z"/>
    </g>
  </g>
</svg>